<?xml version="1.0" encoding="UTF-8"?>
<svg xmlns="http://www.w3.org/2000/svg" width="760" height="260" viewBox="0 0 760 260" preserveAspectRatio="xMidYMid slice" role="img" aria-label="Illustrated warrior cats beneath a starry sky">
    <defs><linearGradient id="coverSky" x1="0" y1="0" x2="0" y2="1">
      <stop offset="0" stop-color="#16233b"/><stop offset="1" stop-color="#33533f"/>
    </linearGradient></defs>
    <rect width="760" height="260" fill="url(#coverSky)"/>
    <circle cx="0" cy="0" r="1.8" fill="#dfe8ff" opacity="0.8"/><circle cx="131" cy="71" r="1" fill="#dfe8ff" opacity="0.8"/><circle cx="262" cy="22" r="1" fill="#dfe8ff" opacity="0.8"/><circle cx="393" cy="93" r="1" fill="#dfe8ff" opacity="0.8"/><circle cx="524" cy="44" r="1.8" fill="#dfe8ff" opacity="0.8"/><circle cx="655" cy="115" r="1" fill="#dfe8ff" opacity="0.8"/><circle cx="26" cy="66" r="1" fill="#dfe8ff" opacity="0.8"/><circle cx="157" cy="17" r="1" fill="#dfe8ff" opacity="0.8"/><circle cx="288" cy="88" r="1.8" fill="#dfe8ff" opacity="0.8"/><circle cx="419" cy="39" r="1" fill="#dfe8ff" opacity="0.8"/><circle cx="550" cy="110" r="1" fill="#dfe8ff" opacity="0.8"/><circle cx="681" cy="61" r="1" fill="#dfe8ff" opacity="0.8"/><circle cx="52" cy="12" r="1.8" fill="#dfe8ff" opacity="0.8"/><circle cx="183" cy="83" r="1" fill="#dfe8ff" opacity="0.8"/><circle cx="314" cy="34" r="1" fill="#dfe8ff" opacity="0.8"/><circle cx="445" cy="105" r="1" fill="#dfe8ff" opacity="0.8"/><circle cx="576" cy="56" r="1.8" fill="#dfe8ff" opacity="0.8"/><circle cx="707" cy="7" r="1" fill="#dfe8ff" opacity="0.8"/><circle cx="78" cy="78" r="1" fill="#dfe8ff" opacity="0.8"/><circle cx="209" cy="29" r="1" fill="#dfe8ff" opacity="0.8"/><circle cx="340" cy="100" r="1.8" fill="#dfe8ff" opacity="0.8"/><circle cx="471" cy="51" r="1" fill="#dfe8ff" opacity="0.8"/><circle cx="602" cy="2" r="1" fill="#dfe8ff" opacity="0.8"/><circle cx="733" cy="73" r="1" fill="#dfe8ff" opacity="0.8"/><circle cx="104" cy="24" r="1.8" fill="#dfe8ff" opacity="0.8"/><circle cx="235" cy="95" r="1" fill="#dfe8ff" opacity="0.8"/><circle cx="366" cy="46" r="1" fill="#dfe8ff" opacity="0.8"/><circle cx="497" cy="117" r="1" fill="#dfe8ff" opacity="0.8"/><circle cx="628" cy="68" r="1.8" fill="#dfe8ff" opacity="0.8"/><circle cx="759" cy="19" r="1" fill="#dfe8ff" opacity="0.8"/><circle cx="130" cy="90" r="1" fill="#dfe8ff" opacity="0.8"/><circle cx="261" cy="41" r="1" fill="#dfe8ff" opacity="0.8"/><circle cx="392" cy="112" r="1.8" fill="#dfe8ff" opacity="0.8"/><circle cx="523" cy="63" r="1" fill="#dfe8ff" opacity="0.8"/><circle cx="654" cy="14" r="1" fill="#dfe8ff" opacity="0.8"/><circle cx="25" cy="85" r="1" fill="#dfe8ff" opacity="0.8"/><circle cx="156" cy="36" r="1.8" fill="#dfe8ff" opacity="0.8"/><circle cx="287" cy="107" r="1" fill="#dfe8ff" opacity="0.8"/><circle cx="418" cy="58" r="1" fill="#dfe8ff" opacity="0.8"/><circle cx="549" cy="9" r="1" fill="#dfe8ff" opacity="0.8"/>
    <path d="M0,260 L0,170 Q380,150 760,170 L760,260 Z" fill="#3a5a3a"/>
    <rect x="60" y="120" width="20" height="120" fill="#4a3120"/>
                 <rect x="650" y="100" width="24" height="140" fill="#4a3120"/>
                 <ellipse cx="50" cy="220" rx="90" ry="40" fill="#2f4a30"/>
                 <ellipse cx="710" cy="220" rx="100" ry="44" fill="#2f4a30"/>
    <g transform="translate(180 214) scale(1.5 1.5)"><g>
        <path d="M-26,6 Q-28,-8 -14,-9 Q2,-11 18,-9 Q30,-8 28,6 Q14,10 0,10 Q-14,10 -26,6 Z" fill="#e07b39"/>
        <path d="M24,2 Q38,-4 40,8" stroke="#e07b39" stroke-width="6" fill="none" stroke-linecap="round"/>
        <path d="M-20,8 l0,12 M-8,9 l0,12 M8,9 l0,12 M18,7 l2,12" stroke="#be5917" stroke-width="4" stroke-linecap="round"/>
        <circle cx="-22" cy="-10" r="11" fill="#e07b39"/>
        <path d="M-30,-18 l4,9 8,-6 Z M-14,-18 l-2,9 -8,-5 Z" fill="#e07b39"/>
        <circle cx="-25" cy="-11" r="1.9" fill="#1a1a1a"/><circle cx="-18" cy="-11" r="1.9" fill="#1a1a1a"/>
        <path d="M-23,-6 q3,2 6,0" stroke="#be5917" stroke-width="1.4" fill="none"/></g></g><g transform="translate(300 210) scale(1.2 1.2)"><g>
        <path d="M-28,8 Q-30,-2 -18,-3 Q0,-6 18,-3 Q30,-2 28,8 Q14,12 -2,12 Q-16,12 -28,8 Z" fill="#3f7fd6"/>
        <path d="M26,6 Q40,4 44,12" stroke="#3f7fd6" stroke-width="6" fill="none" stroke-linecap="round"/>
        <circle cx="-24" cy="-2" r="11" fill="#3f7fd6"/>
        <path d="M-32,-10 l4,9 8,-6 Z M-16,-10 l-2,9 -8,-5 Z" fill="#3f7fd6"/>
        <circle cx="-27" cy="-3" r="1.9" fill="#1a1a1a"/><circle cx="-20" cy="-3" r="1.9" fill="#1a1a1a"/></g></g><g transform="translate(430 196) scale(1.3 1.3)"><g>
        <path d="M-26,4 Q-30,-10 -16,-12 Q-2,-15 10,-10 Q24,-6 30,-14 Q33,-2 22,4 Q10,8 -4,7 Q-16,7 -26,4 Z" fill="#9aa6b2"/>
        <path d="M22,4 Q34,10 40,4" stroke="#9aa6b2" stroke-width="6" fill="none" stroke-linecap="round"/>
        <path d="M-22,6 l-6,12 M-12,8 l-4,12 M6,7 l4,12 M16,5 l8,10" stroke="#788490" stroke-width="4" stroke-linecap="round"/>
        <circle cx="-22" cy="-14" r="11" fill="#9aa6b2"/>
        <path d="M-30,-22 l4,9 8,-6 Z M-14,-22 l-2,9 -8,-5 Z" fill="#9aa6b2"/>
        <circle cx="-25" cy="-15" r="1.8" fill="#1a1a1a"/><circle cx="-18" cy="-15" r="1.8" fill="#1a1a1a"/></g></g><g transform="translate(560 214) scale(1.35 1.35)"><g>
        <path d="M-6,14 Q-18,12 -16,-6 Q-14,-20 0,-20 Q14,-20 14,-2 Q14,12 6,14 Z" fill="#c7a23f"/>
        <path d="M12,12 Q24,14 22,2" stroke="#c7a23f" stroke-width="6" fill="none" stroke-linecap="round"/>
        <circle cx="0" cy="-22" r="11" fill="#c7a23f"/>
        <path d="M-9,-30 l3,9 7,-6 Z M9,-30 l-3,9 -7,-6 Z" fill="#c7a23f"/>
        <circle cx="-4" cy="-23" r="1.9" fill="#1a1a1a"/><circle cx="4" cy="-23" r="1.9" fill="#1a1a1a"/></g></g>
  </svg>